User Type,Username,Date,Text
[T],zeromancer,2009-08-31T07:42Z,n00b
,VicVega,2011-01-07T18:45Z,"Audio sounds like sh*t, no idea what the ripper did to it to make it sound that crappy. Video is OK though. But the info is wrong. Here is a MediaInfo dump:

General
Complete name                    : BRING_IT_ON_IN_IT_TO_WIN_IT.mp4
Format                           : MPEG-4
Format profile                   : Base Media
Codec ID                         : isom
File size                        : 1.07 GiB
Duration                         : 1h 26mn
Overall bit rate                 : 1 782 Kbps
Movie name                       : BRING_IT_ON_IN_IT_TO_WIN_IT.DVDRip
Album                            : BRING_IT_ON_IN_IT_TO_WIN_IT
Writing application              : Lavf52.17.0

Video
ID                               : 1
Format                           : AVC
Format/Info                      : Advanced Video Codec
Format profile                   : Baseline@L1.3
Format settings, CABAC           : No
Format settings, ReFrames        : 1 frame
Codec ID                         : avc1
Codec ID/Info                    : Advanced Video Coding
Duration                         : 1h 26mn
Bit rate mode                    : Variable
Bit rate                         : 1 585 Kbps
Width                            : 704 pixels
Height                           : 400 pixels
Display aspect ratio             : 16:9
Frame rate mode                  : Constant
Frame rate                       : 25.000 fps
Color space                      : YUV
Chroma subsampling               : 4:2:0
Bit depth                        : 8 bits
Scan type                        : Progressive
Bits/(Pixel*Frame)               : 0.225
Stream size                      : 979 MiB (89%)

Audio
ID                               : 2
Format                           : AAC
Format/Info                      : Advanced Audio Codec
Format version                   : Version 4
Format profile                   : LC
Format settings, SBR             : No
Codec ID                         : 40
Duration                         : 1h 26mn
Bit rate mode                    : Variable
Bit rate                         : 192 Kbps
Channel(s)                       : 6 channels
Channel positions                : Front: L C R, Side: L R, LFE
Sampling rate                    : 48.0 KHz
Stream size                      : 119 MiB (11%)"
